# xmcd
#
# Track frame offsets:
#	150
#	13273
#	23270
#	37610
#	47208
#	59415
#	71604
#	76009
#	87095
#	97444
#	108784
#	122562
#	129171
#	146630
#	158043
#	174094
#
# Disc length: 2524 seconds
#
# Revision: 1
# Processed by: cddbd v1.5.2PL0 Copyright (c) Steve Scherf et al.
# Submitted via: audiograbber 1.83.01
#
DISCID=bc09da10
DTITLE=Thee Oh Sees - Castlemania
DYEAR=2011
DGENRE=garage rock
TTITLE0=I Need Seed
TTITLE1=Corprophagist (A Bath Perhaps)
TTITLE2=Stinking Cloud
TTITLE3=Corrupted Coffin
TTITLE4=Pleasure Blimps
TTITLE5=A Wall, A Century 2
TTITLE6=Spider Cider
TTITLE7=The Whipping Continues
TTITLE8=Blood On The Deck
TTITLE9=Castlemania
TTITLE10=AA Warm Breeze
TTITLE11=Idea For A Rubber Dog
TTITLE12=The Horse Was Lost
TTITLE13=I Won't Hurt You
TTITLE14=If I Stay Too Long
TTITLE15=What Are We Craving?
EXTD=
EXTT0=
EXTT1=
EXTT2=
EXTT3=
EXTT4=
EXTT5=
EXTT6=
EXTT7=
EXTT8=
EXTT9=
EXTT10=
EXTT11=
EXTT12=
EXTT13=
EXTT14=
EXTT15=
PLAYORDER=
